# xmcd CD database file
#
# Track frame offsets:
#	150
#	24312
#	46332
#	70470
#
# Disc length: 1233 seconds
#
# Revision: 0
# Processed by: cddbd v1.5.1PL0 Copyright (c) Steve Scherf et al.
# Submitted via: CDex 1.51
#
DISCID=2e04cf04
DTITLE=松任谷由美 - Sunny day Holiday
DYEAR=1997
DGENRE=J-POP
TTITLE0=Sunny day Holiday
TTITLE1=夢の中で 〜We are not alone,forever
TTITLE2=Sunny day Holiday (オリジナル・カラオケ)
TTITLE3=夢の中で 〜We are not alone,forever　(オリジナル・カラオケ)
EXTD=YEAR: 1997
EXTT0=
EXTT1=
EXTT2=
EXTT3=
PLAYORDER=
